<svg xmlns="http://www.w3.org/2000/svg" width="18" height="24" viewBox="0 0 18 24"><g transform="translate(-343 -130.31)"><path d="M14,24H4a4,4,0,0,1-4-4V4A4,4,0,0,1,4,0H14c.094,0,.189,0,.284.01,0,.024,0,.048,0,.073a5.212,5.212,0,0,0,1.043,3.124A5.773,5.773,0,0,0,18,5.184V20A4,4,0,0,1,14,24Z" transform="translate(343 130.31)" fill="#c19ab7"/><g transform="translate(348.983 144.172)"><line y2="4.806" transform="translate(2.878)" fill="none" stroke="#fff" stroke-linecap="round" stroke-width="2"/><path d="M-2043.862,105.817l1.664,1.511,1.037.942,3.231-2.452" transform="translate(2043.862 -102.72)" fill="none" stroke="#fff" stroke-linecap="round" stroke-width="2"/></g><g transform="translate(0 -2)"><line x2="6.145" transform="translate(347.173 141.253)" fill="none" stroke="#fff" stroke-linecap="round" stroke-width="2"/><path d="M0,0H9.217" transform="translate(347.173 137.668)" fill="none" stroke="#fff" stroke-linecap="round" stroke-width="2"/></g></g></svg>