<svg xmlns="http://www.w3.org/2000/svg" width="47" height="29" viewBox="0 0 47 29"><g transform="translate(-297 -376)"><g transform="translate(297 376)" fill="none" stroke="#9c95dc" stroke-width="2"><rect width="47" height="19" rx="9" stroke="none"/><rect x="1" y="1" width="45" height="17" rx="8" fill="none"/></g><rect width="27" height="22" transform="translate(317 383)" fill="#fff"/><circle cx="6.5" cy="6.5" r="6.5" transform="translate(322 385)" fill="#9c95dc" opacity="0.204"/><path d="M18.412,16.743h-.879l-.312-.3a7.245,7.245,0,1,0-.779.779l.3.312v.879l5.565,5.554,1.658-1.658Zm-6.678,0a5.008,5.008,0,1,1,5.008-5.008A5,5,0,0,1,11.734,16.743Z" transform="translate(316.5 379.5)" fill="#9c95dc"/></g></svg>