<svg xmlns="http://www.w3.org/2000/svg" width="609.286" height="417.322" viewBox="0 0 609.286 417.322"><g transform="translate(-643.714 -280.551)"><g transform="translate(374.918 277.335)"><ellipse cx="63.624" cy="9.52" rx="63.624" ry="9.52" transform="translate(552.834 373.625)" fill="#e6e6e6"/><circle cx="2.346" cy="2.346" r="2.346" transform="translate(621.424 213.776)" fill="#f2f2f2"/><path d="M644.576,718.4l.554,4.988-4.988-.554v-6.1Z" transform="translate(-54.062 -353.11)" fill="#ffb8b8"/><path d="M787.705,718.4l-.554,4.988,4.988-.554v-6.1Z" transform="translate(-145.091 -353.11)" fill="#ffb8b8"/><path d="M793.807,492.226l-2.217,57.089s-7.205,42.678-5.543,43.786,0,7.205,0,7.205l9.422,1.108s0-4.434,2.217-6.1S820.412,515.5,820.412,515.5l21.062,75.379s-.554,4.434,1.109,4.434,2.217,6.1,2.217,6.1h9.422v-6.1s2.771-.554,1.109-4.988-7.76-98.1-7.76-98.1Z" transform="translate(-203.847 -234.465)" fill="#2f2e41"/><path d="M767.649,773.08s-2.771-1.663-3.88-.554-9.977,12.194-9.977,12.194-12.194,7.76-1.108,9.977,19.4-8.314,19.953-9.422-.554-9.977-1.108-8.868-2.217.554-2.771,0S767.649,773.08,767.649,773.08Z" transform="translate(-180.46 -407.794)" fill="#2f2e41"/><path d="M945.483,773.08s2.771-1.663,3.88-.554,9.977,12.194,9.977,12.194,12.194,7.76,1.109,9.977-19.4-8.314-19.953-9.422.554-9.977,1.109-8.868,2.217.554,2.771,0S945.483,773.08,945.483,773.08Z" transform="translate(-299.543 -407.794)" fill="#2f2e41"/><circle cx="11.362" cy="11.362" r="11.362" transform="translate(612.13 153.005)" fill="#ffb8b8"/><path d="M716.037,209.3l-1.663,17.182,13.3,2.771L731,208.75Z" transform="translate(-100.027 -38.563)" fill="#ffb8b8"/><path d="M849.441,297.737s-3.326,7.205-15.519-.554L811.2,371.454s30.484,18.291,49.883,4.434l-6.651-74.825Z" transform="translate(-219.574 -113.694)" fill="#575a89"/><path d="M827.323,274.1l-10.531-1.663-1.109,7.205s-14.411,1.663-16.073,7.205l1.663,41.015s-4.988,8.868-.554,14.411c0,0-7.205,14.965-1.663,17.736,0,0,12.748-6.1,20.508-4.434,0,0,4.434-1.109,4.434-4.434S827.323,274.1,827.323,274.1Z" transform="translate(-210.759 -98.372)" fill="#2f2e41"/><path d="M907.586,279.716l6.1,1.663.554,7.76s14.965,9.422,15.519,14.965-11.085,32.147-11.085,32.147,4.434,7.76,2.771,12.748c0,0,7.205,14.411,2.771,18.291,0,0-8.314,2.217-9.422-1.109s-11.085-41.569-6.651-59.86C908.14,306.321,903.706,283.042,907.586,279.716Z" transform="translate(-278.273 -102.878)" fill="#2f2e41"/><path d="M896.127,312.446h-.209v-5.715a3.308,3.308,0,0,0-3.308-3.308H880.5a3.308,3.308,0,0,0-3.308,3.308v31.353a3.308,3.308,0,0,0,3.308,3.308h12.108a3.308,3.308,0,0,0,3.308-3.308v-21.57h.209Z" transform="translate(-260.441 -117.558)" fill="#fff"/><path d="M919.259,368.37s-4.434-14.411-11.085-9.977,4.434,16.628,4.434,16.628Z" transform="translate(-278.307 -151.071)" fill="#ffb8b8"/><path d="M860.685,348.275s7.76-9.422,11.639-4.988-6.651,14.411-6.651,14.411Z" transform="translate(-250.218 -141.507)" fill="#ffb8b8"/><path d="M788.458,308.8s-2.771-.554-4.434,4.434-7.76,23.833-7.76,27.159,2.217,16.628,14.411,14.411,26.6-17.736,26.6-17.736l-7.76-11.639L792.892,335.4Z" transform="translate(-197.943 -120.874)" fill="#2f2e41"/><path d="M657.882,291.9,660.2,303.86l17.182-9.976-16.074,6.1-3.544-8.792Z" transform="translate(-64.973 -89.609)" opacity="0.1"/><path d="M786.424,314.551l2.217,1.663,1.108-7.76Z" transform="translate(-144.641 -100.3)" opacity="0.1"/><path d="M807.558,410.3s16.28-4.429,23.936-14.131C831.495,396.166,823.632,409.189,807.558,410.3Z" transform="translate(-217.321 -174.985)" opacity="0.1"/><path d="M915.268,407.076s3.428,16.778,12.245,17.257C927.513,424.333,916.931,427.584,915.268,407.076Z" transform="translate(-284.016 -181.74)" opacity="0.1"/><path d="M933.732,337.938s1.663,1.109,2.771,6.1,8.314,23.833,5.543,28.267-7.205,14.411-16.628,7.76L916,362.88l9.422-8.868,3.88,2.771Z" transform="translate(-284.467 -138.929)" fill="#2f2e41"/><path d="M859.648,220.749s-9.529-15.444.621-16.247A25.878,25.878,0,0,0,870,201.849c3.364-1.712,7.6-3.013,9.853-.378a16.745,16.745,0,0,0,3.407,3.156c1.98,1.313,4.27,3.441,3,5.724l-2.079,3.743-2.911,7.486c.678-3.229.7-5.94-1.04-7.278,0,0-9.678,4.119-14.556-3.327C860.218,206.879,858.481,219.773,859.648,220.749Z" transform="translate(-247.063 -53.5)" fill="#2f2e41"/><circle cx="2.771" cy="2.771" r="2.771" transform="translate(623.493 194.297)" fill="#228cdb"/></g><g transform="translate(1008 280.551)"><rect width="153.804" height="30.366" transform="translate(0 96.122)" fill="#e6e6e6"/><rect width="153.804" height="30.366" transform="translate(0 48.14)" fill="#e6e6e6"/><rect width="153.804" height="30.366" fill="#e6e6e6"/><path d="M183.95,174.985H331.2V151.176H183.95Z" transform="translate(-180.671 -147.898)" fill="#fff"/><path d="M183.95,322.735H331.2V298.927H183.95Z" transform="translate(-180.671 -247.402)" fill="#fff"/><path d="M183.95,469.353H331.2V445.545H183.95Z" transform="translate(-180.671 -346.144)" fill="#fff"/><circle cx="9.07" cy="9.07" r="9.07" transform="translate(7.099 5.916)" fill="#228cdb"/><rect width="89.522" height="1.972" transform="translate(37.859 11.437)" fill="#228cdb"/><rect width="89.522" height="1.972" transform="translate(37.859 16.563)" fill="#228cdb"/><circle cx="9.07" cy="9.07" r="9.07" transform="translate(7.099 54.45)" fill="#ccc"/><rect width="89.522" height="1.972" transform="translate(37.859 59.971)" fill="#ccc"/><rect width="89.522" height="1.972" transform="translate(37.859 65.098)" fill="#ccc"/><circle cx="9.07" cy="9.07" r="9.07" transform="translate(7.099 102.432)" fill="#ccc"/><rect width="89.522" height="1.972" transform="translate(37.859 107.954)" fill="#ccc"/><rect width="89.522" height="1.972" transform="translate(37.859 113.08)" fill="#ccc"/></g><g transform="translate(1050.851 338.64)"><path d="M272.591,534.157a97.048,97.048,0,1,1,71.764-31.766l20.267,22.719-10.113,4.29c-15.645,6.636-30.955.179-39.549-4.975A97.171,97.171,0,0,1,272.591,534.157Zm0-178.144a81.2,81.2,0,1,0,39.043,152.41l4.322-2.375,4.025,2.864a42.578,42.578,0,0,0,15.362,7.029l-12.753-14.3,5.59-5.253a80.435,80.435,0,0,0,25.609-59.18A81.292,81.292,0,0,0,272.591,356.013Z" transform="translate(-167.444 -234.736)" fill="#3f3d56"/><path d="M371.058,446.674a89.037,89.037,0,1,0-46.245,78.115c6.157,4.381,21.178,13.119,36.016,6.825l-17.862-20.023a88.82,88.82,0,0,0,28.091-64.917Z" transform="translate(-176.84 -244.198)" fill="rgba(34,140,219,0)"/><path d="M208.66,445.7a89.076,89.076,0,0,1,81.2-88.722c-2.595-.227-5.219-.35-7.873-.35a89.072,89.072,0,1,0,0,178.144c2.65,0,5.269-.125,7.86-.351A89.076,89.076,0,0,1,208.66,445.7Z" transform="translate(-176.84 -243.672)" fill="#228cdb" opacity="0.1" style="isolation:isolate"/><circle cx="8.311" cy="8.311" r="8.311" transform="translate(0.002 182.741)" fill="#2f2e41"/><path d="M68.678,481.749l-4.186-4.069-8.406,2.611.807,9.733,17.284-.8-5.31-7.215Z" transform="translate(-30.238 -266.023)" fill="#fbbebe"/><circle cx="13.437" cy="13.437" r="13.437" transform="translate(15.847 188.768)" fill="#fbbebe"/><path d="M393.915,617.061s16.508,28.368,20.436,32.627a71.307,71.307,0,0,0,5.961,5.941s-1.847,6.126-4.789,5.907a13.843,13.843,0,0,1-4.852-1.2s-1.313-3.4-3.6-4.9-21-19.9-20.562-25.782S393.915,617.061,393.915,617.061Z" transform="translate(-292.368 -384.089)" fill="#2f2e41"/><path d="M275.023,683.6s17.6,13.661,41.521.825l2.061-1.517s-3.479,7.826-3.8,9.948c-.374,2.46-9.431,16.871-10.909,17.562a3.833,3.833,0,0,0-1.8,1.327l6.272,6.9,2.319-1.707s9.043-12.812,11.687-15.155,15.246-26.513,15.246-26.513,4.818-9.107-7.206-9.792-17.556,2.592-17.556,2.592l-21.339,3.39Z" transform="translate(-227.625 -410.145)" fill="#2f2e41"/><path d="M445.485,697.841l8.9,6.16s11.358,3.558,4.361,5.927-25.432,3.225-25.851-.043.727-8.41,1.647-8.128S441.849,703.7,445.485,697.841Z" transform="translate(-319.295 -427.643)" fill="#2f2e41"/><path d="M336.6,767.576l1.648,9.048s4.685,8.961-.94,6.18-17.216-13.341-15.5-15.555,5.489-4.615,5.872-3.894S330.9,768.908,336.6,767.576Z" transform="translate(-253.75 -462.895)" fill="#2f2e41"/><path d="M255.167,625.017s-11.964,13.969-19.228,10.576-36.982-42.7-33.588-49.959,4.531-5.718,4.531-5.718l15.344,1.419-4.415-7.079a2.986,2.986,0,0,1,4.026.612c1.964,2.129,9.851,7.448,12.6,14.959s10.813,7.137,10.813,7.137Z" transform="translate(-181.782 -360.728)" fill="#fff"/><path d="M218.083,491.8l-20.74,22.016-18.579-32.8,17.662-21.34Z" transform="translate(-105.314 -256.315)" fill="#3f3d56"/><path d="M218.913,493.7,200.18,513.042,183.206,483.23l15.567-19.6Z" transform="translate(-107.793 -258.449)" fill="#fff"/><path d="M183.051,575.336l1.016.841-.652,1.274-29,8.631-.274-.994,1.319-1.365Z" transform="translate(-90.513 -318.676)" fill="#b3b3b3"/><path d="M163.085,538.594l-30.031,9.39-18.307-34.592,29.5-7.411Z" transform="translate(-67.828 -281.282)" fill="#d0cde1"/><path d="M196.5,537.821l-1.289.948-14.3-24.829,1.478-.69Z" transform="translate(-105.75 -285.201)" fill="#3f3d56"/><path d="M176.582,540.738l-12.7,3.788-14.421-25.534,12.568-2.893Z" transform="translate(-87.682 -286.738)" fill="#3f3d56"/><path d="M286.8,620.372l2.63-.744s14.668-1.659,14.882,2.951-16.851,2.471-16.851,2.471l-2.276-3.092Z" transform="translate(-232.444 -385.316)" fill="#fbbebe"/><path d="M312.776,654.042l3.661-1.5s11.051-4.955,7.881-8.183-12.947,2.378-12.947,2.378l-1.872,1.775Z" transform="translate(-246.569 -398.266)" fill="#fbbebe"/><path d="M252.408,630.825s5.961,5.941,4.6,7.336-23.6,19.75-29.112,13.877-32.377-35.359-21.924-37.888,13.215,3.383,13.215,3.383l13.8,23.609Z" transform="translate(-182.592 -382.181)" fill="#fff"/><path d="M111.916,518.781l9.792,3.32-.16,7.069-10.356-1.117Z" transform="translate(-64.901 -288.184)" fill="#fff"/><path d="M105.469,551.423,94.919,557.6,82.865,539.06,94.5,554.331Z" transform="translate(-44.677 -299.117)" opacity="0.2"/><circle cx="15.996" cy="15.996" r="15.996" transform="translate(7.39 182.314)" fill="#2f2e41"/><path d="M225.2,506.371l-11.2-16.385,4.748-5.878,11.638,16.857Z" transform="translate(-125.122 -269.489)" fill="#228cdb"/><path d="M217.665,516.52l-17.052-24.79.841-1.016,16.972,24.848Z" transform="translate(-117.349 -273.051)" fill="#e6e6e6"/><path d="M212.9,521.753l-17.052-24.79.841-1.016L213.658,520.8Z" transform="translate(-114.559 -275.872)" fill="#e6e6e6"/><path d="M208.835,525.6l-17.052-24.79.841-1.016L209.6,524.647Z" transform="translate(-112.183 -277.949)" fill="#e6e6e6"/><path d="M66.117,425.544h4.948a9.447,9.447,0,0,1,9.447,9.447h-14.4Z" transform="translate(-35.647 -237.914)" fill="#2f2e41"/><path d="M454.736,327.071l.608.663c1.305-1.2,2.653-2.383,4.006-3.519l-.579-.689C457.409,324.671,456.051,325.864,454.736,327.071Z" transform="translate(-330.928 -225.826)" fill="#3f3d56"/><path d="M495.822,296.834Z" transform="translate(-352.037 -211.434)" fill="#3f3d56"/></g><g transform="translate(631.548 374.923)"><path d="M495.378,72l1.988-3.073a46.079,46.079,0,0,0-2.04-4.775l-1.286,1.038,1.018-1.573c-.97-1.91-1.734-3.113-1.734-3.113A44.15,44.15,0,0,0,488,73.438l2.551,3.943L487.732,75.1a18.646,18.646,0,0,0-.155,2.337c0,7.88,2.573,14.267,5.748,14.267s5.748-6.388,5.748-14.267a24.537,24.537,0,0,0-1.315-7.363Z" transform="translate(-374.642 -60.501)" fill="#e6e6e6"/><path d="M513.7,85.344l3.579-.767a46.082,46.082,0,0,0,1.934-4.819l-1.643-.175,1.832-.393c.664-2.036.975-3.427.975-3.427a44.151,44.151,0,0,0-12.91,5.386l-.984,4.592-.384-3.611a18.638,18.638,0,0,0-1.762,1.543c-5.572,5.572-8.269,11.908-6.024,14.153s8.581-.452,14.153-6.024a24.538,24.538,0,0,0,4.276-6.136Z" transform="translate(-382.058 -67.017)" fill="#e6e6e6"/><path d="M507.943,129.278c-8.3.531-17.341-.031-26.961,0V107.253a97.179,97.179,0,0,0,26.961,0Z" transform="translate(-372.502 -80.46)" fill="#e6e6e6"/><path d="M627.839,170.067l1.3-2a30.077,30.077,0,0,0-1.33-3.114l-.839.677.664-1.026c-.633-1.245-1.13-2.03-1.13-2.03a28.793,28.793,0,0,0-3.469,8.437l1.664,2.572-1.842-1.488a12.156,12.156,0,0,0-.1,1.524c0,5.139,1.678,9.3,3.749,9.3s3.749-4.166,3.749-9.3a16,16,0,0,0-.857-4.8Z" transform="translate(-455.636 -104.076)" fill="#e6e6e6"/><path d="M639.784,178.772l2.334-.5a30.072,30.072,0,0,0,1.261-3.143l-1.072-.114,1.195-.256c.433-1.328.636-2.235.636-2.235a28.792,28.792,0,0,0-8.419,3.513l-.642,2.995-.25-2.355a12.155,12.155,0,0,0-1.149,1.006c-3.634,3.634-5.393,7.766-3.929,9.23s5.6-.295,9.23-3.929a16,16,0,0,0,2.789-4Z" transform="translate(-460.791 -108.325)" fill="#e6e6e6"/><path d="M636.033,207.422c-5.412.346-11.309-.02-17.583,0V193.059a63.373,63.373,0,0,0,17.583,0Z" transform="translate(-454.714 -138.81)" fill="#e6e6e6"/><path d="M631.734,282.951c-4.779.306-9.986-.018-15.525,0V270.268a55.961,55.961,0,0,0,15.526,0Z" transform="translate(-453.01 -184.287)" fill="#e6e6e6"/><rect width="208.916" height="5.836" transform="translate(29.352 47.269)" fill="#e6e6e6"/><rect width="208.916" height="5.836" transform="translate(29.352 63.842)" fill="#e6e6e6"/><rect width="208.916" height="5.836" transform="translate(29.352 93.663)" fill="#e6e6e6"/><circle cx="11.671" cy="11.671" r="11.671" transform="translate(159.216 71.905)" fill="#e6e6e6"/><circle cx="9.337" cy="9.337" r="9.337" transform="translate(161.602 73.889)" fill="#fff"/><circle cx="2.334" cy="2.334" r="2.334" transform="translate(168.755 79.885)" fill="#e6e6e6"/><rect width="1.167" height="9.337" transform="translate(178.132 81.394) rotate(90)" fill="#e6e6e6"/><rect width="1.167" height="9.337" transform="translate(171.708 84.704) rotate(180)" fill="#e6e6e6"/><rect width="7.722" height="30.568" transform="translate(117.737 60.234)" fill="#e6e6e6"/><rect width="7.722" height="3.539" transform="translate(117.737 65.06)" fill="#ccc"/><rect width="7.722" height="3.539" transform="translate(117.737 80.505)" fill="#ccc"/><rect width="7.722" height="30.568" transform="translate(109.484 60.234)" fill="#e6e6e6"/><rect width="7.722" height="3.539" transform="translate(109.484 65.06)" fill="#ccc"/><rect width="7.722" height="3.539" transform="translate(109.484 80.505)" fill="#ccc"/><rect width="7.722" height="30.568" transform="matrix(0.896, -0.444, 0.444, 0.896, 121.274, 63.534)" fill="#e6e6e6"/><rect width="7.722" height="3.539" transform="matrix(0.896, -0.444, 0.444, 0.896, 124.293, 67.859)" fill="#ccc"/><rect width="7.722" height="3.539" transform="matrix(0.896, -0.444, 0.444, 0.896, 129.04, 81.7)" fill="#ccc"/><rect width="7.722" height="30.568" transform="translate(70.001 71.479)" fill="#e6e6e6"/><rect width="7.722" height="3.539" transform="translate(70.001 76.802)" fill="#ccc"/><rect width="7.722" height="3.539" transform="translate(70.001 87.941)" fill="#ccc"/><rect width="7.722" height="30.568" transform="translate(61.748 71.479)" fill="#e6e6e6"/><rect width="7.722" height="3.539" transform="translate(61.748 76.802)" fill="#ccc"/><rect width="7.722" height="3.539" transform="translate(61.748 87.941)" fill="#ccc"/><rect width="7.722" height="30.568" transform="matrix(0.896, -0.444, 0.444, 0.896, 74.094, 74.798)" fill="#e6e6e6"/><rect width="7.722" height="3.539" transform="matrix(0.896, -0.444, 0.444, 0.896, 76.589, 79.571)" fill="#ccc"/><rect width="7.722" height="3.539" transform="matrix(0.896, -0.444, 0.444, 0.896, 81.336, 89.526)" fill="#ccc"/><rect width="7.722" height="30.568" transform="translate(120.164 71.479)" fill="#e6e6e6"/><rect width="7.722" height="3.539" transform="translate(120.164 76.802)" fill="#ccc"/><rect width="7.722" height="3.539" transform="translate(120.164 87.941)" fill="#ccc"/><rect width="7.722" height="30.568" transform="translate(111.911 71.479)" fill="#e6e6e6"/><rect width="7.722" height="3.539" transform="translate(111.911 76.802)" fill="#ccc"/><rect width="7.722" height="3.539" transform="translate(111.911 87.941)" fill="#ccc"/><rect width="7.722" height="30.568" transform="matrix(0.896, -0.444, 0.444, 0.896, 123.673, 74.798)" fill="#e6e6e6"/><rect width="7.722" height="3.539" transform="matrix(0.896, -0.444, 0.444, 0.896, 126.718, 79.571)" fill="#ccc"/><rect width="7.722" height="3.539" transform="matrix(0.896, -0.444, 0.444, 0.896, 131.465, 89.526)" fill="#ccc"/><rect width="30.692" height="30.692" transform="translate(157.715 18.709)" fill="#e6e6e6"/><rect width="18.415" height="18.415" transform="translate(164.019 24.847)" fill="#ccc"/><path d="M464.182,54.143l3.9,6.763,3.9,6.763H456.373l3.9-6.763Z" transform="translate(-293.588 -23.114)" fill="#e6e6e6"/><path d="M476.021,56.4l3.905,6.763,3.9,6.763H468.212l3.905-6.763Z" transform="translate(-300.757 -24.077)" fill="#e6e6e6"/><circle cx="2.262" cy="2.262" r="2.262" transform="translate(175.073 25.816)" fill="#e6e6e6"/><rect width="30.692" height="30.692" transform="translate(52.41 18.709)" fill="#e6e6e6"/><rect width="18.415" height="18.415" transform="translate(57.456 24.847)" fill="#ccc"/><path d="M193.318,54.143l3.9,6.763,3.9,6.763H185.509l3.9-6.763Z" transform="translate(-129.564 -23.114)" fill="#e6e6e6"/><path d="M205.157,56.4l3.9,6.763,3.9,6.763H197.348l3.9-6.763Z" transform="translate(-136.734 -24.077)" fill="#e6e6e6"/><circle cx="2.262" cy="2.262" r="2.262" transform="translate(67.161 25.816)" fill="#e6e6e6"/><path d="M224.513,449.782l1.988-3.073a46.071,46.071,0,0,0-2.04-4.775l-1.286,1.038,1.018-1.573c-.97-1.91-1.734-3.113-1.734-3.113a44.153,44.153,0,0,0-5.32,12.937l2.552,3.943-2.825-2.281a18.64,18.64,0,0,0-.155,2.337c0,7.88,2.573,14.267,5.748,14.267s5.748-6.388,5.748-14.267a24.538,24.538,0,0,0-1.315-7.363Z" transform="translate(-200.767 -286.167)" fill="#0b7189"/><path d="M242.831,463.129l3.579-.767a46.077,46.077,0,0,0,1.934-4.819l-1.643-.175,1.832-.393c.664-2.036.975-3.427.975-3.427a44.151,44.151,0,0,0-12.91,5.386l-.984,4.592-.384-3.61a18.635,18.635,0,0,0-1.762,1.543c-5.572,5.572-8.269,11.908-6.024,14.153s8.581-.452,14.153-6.024a24.537,24.537,0,0,0,4.276-6.136Z" transform="translate(-205.011 -293.964)" fill="#0b7189"/><path d="M237.078,507.062c-8.3.531-17.342-.031-26.961,0V485.038a97.182,97.182,0,0,0,26.961,0Z" transform="translate(-197.952 -312.567)" fill="#3f3d56"/><rect width="112.045" height="145.308" transform="translate(158.462 148.752)" fill="#e6e6e6"/><rect width="5.836" height="137.721" transform="translate(35.876 156.338)" fill="#e6e6e6"/><rect width="11.671" height="11.671" transform="translate(32.958 196.167)" fill="#e6e6e6"/><path d="M569.759,489.8l-.657,2.626h-16.34l-.984-2.626H510.162V516.64H611.7V489.8Z" transform="translate(-345.537 -291.708)" fill="#3f3d56"/><path d="M569.759,548.857l-.657,2.626h-16.34l-.984-2.626H510.162V575.7H611.7V548.857Z" transform="translate(-345.537 -326.882)" fill="#3f3d56"/><path d="M569.759,607.918l-.657,2.626h-16.34l-.984-2.626H510.162v26.844H611.7V607.918Z" transform="translate(-345.537 -362.057)" fill="#3f3d56"/><path d="M569.759,666.979,569.1,669.6h-16.34l-.984-2.626H510.162v26.844H611.7V666.979Z" transform="translate(-345.537 -408.225)" fill="#3f3d56"/><path d="M352.136,443.362h-34.43l1.167-15.172h32.1Z" transform="translate(-211.883 -253.063)" fill="#e6e6e6"/><rect width="38.515" height="3.501" transform="translate(104.129 186.659)" fill="#e6e6e6"/><path d="M521,318.128H389.406a3.5,3.5,0,0,0-3.5,3.5v80.24H524.5v-80.24A3.5,3.5,0,0,0,521,318.128Z" transform="translate(-327.155 -220.752)" fill="#3f3d56"/><path d="M385.9,464.252v13.13a3.5,3.5,0,0,0,3.5,3.5H521a3.5,3.5,0,0,0,3.5-3.5v-13.13Z" transform="translate(-327.155 -299.345)" fill="#e6e6e6"/><rect width="124.883" height="70.028" transform="translate(64.894 104.109)" fill="#fff"/><circle cx="3.501" cy="3.501" r="3.501" transform="translate(118.785 169.72)" fill="#3f3d56"/><rect width="33.672" height="1.933" transform="translate(102.917 126.171)" fill="#3f3d56"/><rect width="51.997" height="1.933" transform="translate(100.595 131.263)" fill="#228cdb"/><rect width="42.377" height="1.933" transform="translate(101.837 136.061)" fill="#228cdb"/><rect width="24.739" height="1.933" transform="translate(103.985 140.84)" fill="#3f3d56"/><rect width="37.337" height="1.933" transform="translate(102.467 145.619)" fill="#3f3d56"/><rect width="4.123" height="4.123" transform="translate(95.631 125.435)" fill="#3f3d56"/><rect width="4.123" height="4.123" transform="translate(95.631 130.224)" fill="#6c63ff"/><rect width="4.123" height="4.123" transform="translate(95.631 135.012)" fill="#6c63ff"/><rect width="4.123" height="4.123" transform="translate(95.631 139.8)" fill="#3f3d56"/><rect width="4.123" height="4.123" transform="translate(95.631 144.589)" fill="#3f3d56"/><path d="M592.105,343.269h-17.67a61.8,61.8,0,0,1,0-21.068h17.67a37.908,37.908,0,0,0,0,21.068Z" transform="translate(-427.631 -215.762)" fill="#228cdb"/><path d="M362.216,396.377l-7.269-1.772a18.715,18.715,0,0,1-18.368-22.421h0a24.462,24.462,0,0,1,24.431-24.493h0A24.462,24.462,0,0,1,385.5,372.122h0A19.439,19.439,0,0,1,362.216,396.377Z" transform="translate(-285.866 -234.276)" fill="#2f2e41"/><circle cx="17.974" cy="17.974" r="17.974" transform="translate(62.147 125.768)" fill="#ffb8b8"/><path d="M368.408,422.108s-5.47,18.756-8.6,20.318,25.007,3.907,25.007,3.907-.781-17.974.781-19.537S368.408,422.108,368.408,422.108Z" transform="translate(-298.401 -275.485)" fill="#ffb8b8"/><path d="M393.221,623.645s35.167-3.126,39.855,8.6-3.126,81.274-3.126,81.274H415.1V656.467s-63.31-18-63.31-24.248S393.221,623.645,393.221,623.645Z" transform="translate(-298.382 -424.236)" fill="#2f2e41"/><path d="M474.121,775.29l7.815,3.126s9.378-.781,5.47,6.252a15.476,15.476,0,0,1-10.941,7.815s-14.848,5.47-15.63,0,3.907-16.411,3.907-16.411Z" transform="translate(-360.238 -489.137)" fill="#2f2e41"/><path d="M372.17,619.663s35.167-3.126,39.856,8.6-3.126,81.274-3.126,81.274H394.051V652.486s-44.94-10.409-44.94-16.661c0-2.937-3.062-17.864,2.334-21.008C357.536,611.267,372.17,619.663,372.17,619.663Z" transform="translate(-294.575 -420.254)" fill="#2f2e41"/><path d="M440.03,775.29l7.815,3.126s9.378-.781,5.47,6.252a15.475,15.475,0,0,1-10.941,7.815s-14.848,5.47-15.63,0,3.907-16.411,3.907-16.411Z" transform="translate(-339.442 -489.137)" fill="#2f2e41"/><path d="M352.606,453.471l23.485,2.553a17.3,17.3,0,0,1,15.054,13.62l9.131,43.22s3.126,42.981-3.126,45.326-14.848-9.378-26.57-7.815-26.961,5.08-26.961,5.08-2.42-76.935-2.735-83.228C340.253,459.647,352.606,453.471,352.606,453.471Z" transform="translate(-289.541 -309.72)" fill="#575a89"/><path d="M454.97,627.823l9.641,5.678s17.3-2.482,16.757,3.6-19.421,4.9-19.421,4.9l-11.619-7.16Z" transform="translate(-354.269 -395.597)" fill="#ffb8b8"/><circle cx="11.611" cy="11.611" r="11.611" transform="translate(43.663 113.326)" fill="#2f2e41"/><path d="M342.912,339.788a11.605,11.605,0,0,0-13.9-11.368,11.605,11.605,0,1,1,7.238,21.872A11.6,11.6,0,0,0,342.912,339.788Z" transform="translate(-279.173 -218.992)" fill="#2f2e41"/><path d="M358.327,358.428l15.653-2.882,12.038,7.545a18.26,18.26,0,0,1,8.411,17.82l-12.056-3.056-2.7-6.769-3.215,5.27L359.647,397.99l-9.439-6.011-8.415-13.186Z" transform="translate(-289.534 -238.142)" fill="#2f2e41"/><path d="M393.136,462.16l7.815-3.907s16.411,2.344,19.537,13.285,17.193,86.744,17.193,86.744l-13.285,6.252-18.755-46.107Z" transform="translate(-320.568 -313.056)" fill="#575a89"/><path d="M245.917,458.23l7.821,30.359,13.87,34.1-.481,1.181-16.542-34.707Z" transform="translate(-166.696 -280.781)" opacity="0.2"/><path d="M142.029,690.548l-2.758-.95,26.72-79.367,3.863,1.331Z" transform="translate(-102.348 -383.999)" fill="#3f3d56"/><path d="M301.564,690.548l2.759-.95L277.6,610.231l-3.862,1.331Z" transform="translate(-184.534 -383.999)" fill="#3f3d56"/><path d="M223.576,709.864l2.918.01L227.4,617.1l-4.085-.014Z" transform="translate(-151.541 -386.923)" fill="#3f3d56"/><path d="M290.842,577.508l8,32.348a25.689,25.689,0,0,0,18.707,18.752h0a136.544,136.544,0,0,0,67.937-.438l11.95-3.152A16.865,16.865,0,0,0,410.1,610.06a14.72,14.72,0,0,0-1.331-7.377q-.07-.149-.141-.295a19.522,19.522,0,0,0-16.962-10.968L379,591.012l-46.1-20.425s-15.856-8.054-28.89-8.955A12.784,12.784,0,0,0,290.842,577.508Z" transform="translate(-232.251 -368.902)" fill="#9c95dc"/><rect width="45.518" height="61.858" transform="translate(190.75 136.686)" fill="#e6e6e6"/><rect width="35.014" height="47.583" transform="translate(196.604 143.927)" fill="#fff"/><rect width="16.964" height="1.933" transform="translate(209.872 159.548)" fill="#3f3d56"/><rect width="4.123" height="4.123" transform="translate(205.901 158.473)" fill="#3f3d56"/><rect width="16.964" height="1.933" transform="translate(209.872 165.449)" fill="#3f3d56"/><rect width="4.123" height="4.123" transform="translate(205.901 164.362)" fill="#3f3d56"/><rect width="16.964" height="1.933" transform="translate(209.872 171.349)" fill="#3f3d56"/><rect width="4.123" height="4.123" transform="translate(205.901 170.251)" fill="#3f3d56"/><rect width="3.501" height="3.501" rx="1.751" transform="translate(214.015 146.465)" fill="#3f3d56"/></g></g></svg>