<svg xmlns="http://www.w3.org/2000/svg" width="85" height="45" viewBox="0 0 85 45"><g transform="translate(-259 33.631)"><g transform="translate(288.628 -34)"><g transform="translate(0 0)"><text transform="translate(38.371 33.369)" fill="#fff" font-size="31" font-family="Poppins-SemiBold, Poppins" font-weight="600"><tspan x="0" y="0">E</tspan></text><text transform="translate(0.371 34.369)" fill="#fff" font-size="32" font-family="Poppins-SemiBold, Poppins" font-weight="600"><tspan x="0" y="0">B</tspan></text><text transform="translate(20.371 34.369)" fill="#fff" font-size="32" font-family="Poppins-SemiBold, Poppins" font-weight="600"><tspan x="0" y="0">P</tspan></text></g></g><path d="M22.534,32.193H3.2A3.215,3.215,0,0,1,0,28.973L.016,3.219A3.215,3.215,0,0,1,3.219,0H16.1l9.658,9.658V28.973A3.224,3.224,0,0,1,22.534,32.193ZM10.792,15.542l-1.215,2.05-2.32.52.219,2.378-1.568,1.8,1.568,1.793-.219,2.378,2.32.528,1.215,2.05,2.185-.945,2.186.939,1.215-2.051,2.319-.526-.218-2.372,1.568-1.793L18.478,20.5l.218-2.371L16.377,17.6l-1.215-2.056-2.186.938ZM14.486,2.415v8.853h8.853L14.486,2.415ZM11.749,25.324h0L9.307,22.876l.951-.951,1.491,1.5,3.76-3.773.95.951L11.75,25.323Z" transform="translate(259 -26.835)" fill="#170a1c"/></g></svg>