<svg xmlns="http://www.w3.org/2000/svg" width="155.5" height="84" viewBox="0 0 155.5 84"><g transform="translate(0 -291.001)"><g transform="translate(54 291.001)"><g transform="translate(0 0)"><text transform="translate(69.5 62)" fill="#170a1c" font-size="59" font-family="Poppins-SemiBold, Poppins" font-weight="600"><tspan x="0" y="0">E</tspan></text><text transform="translate(0.5 62)" fill="#170a1c" font-size="59" font-family="Poppins-SemiBold, Poppins" font-weight="600"><tspan x="0" y="0">B</tspan></text><text transform="translate(36.5 63)" fill="#170a1c" font-size="60" font-family="Poppins-SemiBold, Poppins" font-weight="600"><tspan x="0" y="0">P</tspan></text></g></g><path d="M40.886,58.412H5.812A5.834,5.834,0,0,1,0,52.57L.028,5.841A5.833,5.833,0,0,1,5.841,0H29.205L46.729,17.524V52.57A5.849,5.849,0,0,1,40.886,58.412ZM19.581,28.2l-2.2,3.72-4.21.944.4,4.316-2.845,3.264L13.564,43.7l-.4,4.316,4.21.957,2.2,3.72,3.964-1.715,3.966,1.7,2.2-3.721L33.923,48l-.395-4.3,2.845-3.253-2.845-3.253.395-4.3-4.208-.957-2.2-3.731-3.966,1.7Zm6.7-23.82V20.444H42.348L26.285,4.381ZM21.319,45.949h0l-4.431-4.44,1.726-1.726L21.319,42.5l6.822-6.847,1.724,1.726-8.545,8.57Z" transform="translate(0 304.001)" fill="#228cdb"/></g></svg>