<svg xmlns="http://www.w3.org/2000/svg" width="367" height="520.649" viewBox="0 0 367 520.649"><g transform="translate(0 0)"><rect width="367" height="1.504" transform="translate(0 472.106)" fill="#3f3d56"/><path d="M625.744,286.219s-15.6,2.6-23.612,1.14-23.916,6.811-23.916,6.811l-42.022,15.558s-38.009,31.143-43.354,9.444c-2.993-12.152,36.179-21.92,36.179-21.92l68.854-32.982,25.053-8.659Z" transform="translate(-389.889 -141.477)" fill="#ffb9b9"/><path d="M666.416,416.981l-10.985,10.529,1.96,45.875s2.256,60.164,1.5,62.42-14.289,94.006-14.289,94.006,15.793,7.521,30.082,3.008c0,0,14.289-67.684,14.289-87.238l16.545-68.436,25.57,78.213S732.6,608,735.6,625.3s3.008,19.553,3.008,19.553,24.066,6.768,30.082,0c0,0-3.008-88.742-5.264-97.766l-5.264-107.543Z" transform="translate(-427.56 -181.489)" fill="#170a1c"/><path d="M637.6,699.844s-1.5-2.256-6.016,3.76-18.8,17.3-18.8,17.3-39.107,27.826-9.777,29.33S637.6,736.695,637.6,736.695s24.818-4.512,25.57-9.777-3.008-26.322-3.008-26.322Z" transform="translate(-414.542 -251.522)" fill="#2f2e41"/><path d="M770.278,717.981s-5.264,18.049-3.76,25.57-3.008,35.346,18.049,33.09,14.289-26.322,14.289-26.322l-6.768-30.834Z" transform="translate(-457.721 -256.122)" fill="#2f2e41"/><circle cx="24.818" cy="24.818" r="24.818" transform="translate(258.033 18.526)" fill="#ffb9b9"/><path d="M712.606,177.741s7.521,26.322,1.5,36.1,40.611,1.5,43.619-7.52c0,0-15.041-16.545-12.785-32.338Z" transform="translate(-444.421 -121.237)" fill="#ffb9b9"/><path d="M711.218,222.739s20.587,1.392,30.6-9.833L768.6,224.353a14.052,14.052,0,0,1,8.305,15.425l-13.8,76.215s6.312,48.131,3.008,80.469c-2.985,29.216-111.3,0-107.543-24.818.4-2.659.775-5.379,1.117-8.115a640.148,640.148,0,0,1,13.693-72.6c2-8.17-3.529-54.651-3.529-54.651l33.1-21.933S704.45,222.739,711.218,222.739Z" transform="translate(-431 -130.888)" fill="#228cdb"/><path d="M681.659,239.263l-6.293-6.469-46.094,25.957s13.5,23.586,18.82,23.659c2.038.028,26.221,1.211,32.115-6.609C689.691,263.217,681.659,239.263,681.659,239.263Z" transform="translate(-423.758 -135.819)" fill="#228cdb"/><path d="M715.957,130.951a99.226,99.226,0,0,1,11.12-1.1c2.7-.115,5.51-.1,7.949,1.065,3.677,1.751,5.737,5.71,7.086,9.552s2.305,7.949,4.807,11.163c4.163-4.346,5-10.806,5.615-16.792.436-4.21.822-8.7-1.124-12.458a19.693,19.693,0,0,0-5.181-5.787c-9.566-7.962-21.715-14.226-34.031-12.438l-.288,1.9a33.96,33.96,0,0,0-6.283.395l.44,4.718-6.542.415-.251,4.917-6.616.229a7.666,7.666,0,0,0,2.308,4.984,9.32,9.32,0,0,1-3.4,1.535c1.1,4.271,2.174,8.552,3.314,12.813.84,3.139.69,5.913,4.057,4.381,2.564-1.166,4.3-4.876,6.89-6.408C708.882,132.228,712.5,131.493,715.957,130.951Z" transform="translate(-439.204 -103.847)" fill="#2f2e41"/><path d="M822.532,285.592l.365,26.5-7.635,75.963s4.118,40.161-8.328,41.473c-22.225,2.343-5.843-43.984-5.843-43.984l.36-44.809s2.375-17.765-1.717-24.807-6.947-22.6-6.947-22.6Z" transform="translate(-464.302 -148.911)" fill="#ffb9b9"/><path d="M800.143,230.981h0a14.047,14.047,0,0,1,13.5,10.149c4.8,16.642,13.525,47.959,11.318,48.511-3.008.752-38.354,3.008-38.354,3.008Z" transform="translate(-462.769 -135.37)" fill="#228cdb"/><path d="M481.85,418.1a1.119,1.119,0,0,1-1.042.856l-3.954.164a1.124,1.124,0,0,1-1.148-.917l-.4-2.185a1.119,1.119,0,0,1,.983-1.315l4-.426a1.116,1.116,0,0,1,1.226.953h0l.354,2.448A1.123,1.123,0,0,1,481.85,418.1Zm-5.806-2.372a.372.372,0,0,0,0,.155l.4,2.185a.375.375,0,0,0,.382.306l3.954-.164a.373.373,0,0,0,.354-.426l-.354-2.448a.372.372,0,0,0-.409-.318l-4,.426a.368.368,0,0,0-.259.148A.372.372,0,0,0,476.044,415.729Z" transform="translate(-385.577 -180.817)" fill="#e6e6e6"/></g></svg>